<svg width="60" height="60" viewBox="0 0 60 60" fill="none" xmlns="http://www.w3.org/2000/svg">
<style>
  path { fill: #526D7A; }
  @media (prefers-color-scheme: dark) {
    path { fill: #C2CFD6; }
  }
</style>
<path d="M47.6465 49C41.7366 54.5786 33.7684 58 25 58H7C6.29249 58 5.61977 57.852 5.00977 57.5869L13.5967 49H47.6465Z"/>
<path d="M53 2C53.9588 2 54.8543 2.27034 55.6152 2.73828L2.73828 55.6162C2.27007 54.8551 2 53.9591 2 53V35C2 16.7746 16.7746 2 35 2H53Z"/>
<path d="M56.2939 35.5C55.1341 38.9583 53.4156 42.1596 51.248 45H17.5967L27.0967 35.5H56.2939Z"/>
<path d="M58 25C58 27.4021 57.7403 29.7437 57.2529 32H30.5967L40.5967 22H58V25Z"/>
<path d="M57.5869 5.00977C57.852 5.61977 58 6.29249 58 7V19H43.5967L57.5869 5.00977Z"/>
</svg>
