<svg width="64" height="64" viewBox="0 0 64 64" fill="none" xmlns="http://www.w3.org/2000/svg">
<style>
  path { fill: #526D7A; }
  @media (prefers-color-scheme: dark) {
    path { fill: #C2CFD6; }
  }
</style>
<path d="M49.6465 51C43.7366 56.5786 35.7684 60 27 60H9C8.29249 60 7.61978 59.852 7.00977 59.5869L15.5967 51H49.6465Z"/>
<path d="M55 4C55.9588 4 56.8543 4.27034 57.6152 4.73828L4.73828 57.6162C4.27007 56.8551 4 55.9591 4 55V37C4 18.7746 18.7746 4 37 4H55Z"/>
<path d="M58.2939 37.5C57.1341 40.9583 55.4156 44.1596 53.248 47H19.5967L29.0967 37.5H58.2939Z"/>
<path d="M60 27C60 29.4021 59.7403 31.7437 59.2529 34H32.5967L42.5967 24H60V27Z"/>
<path d="M59.5869 7.00977C59.852 7.61978 60 8.29249 60 9V21H45.5967L59.5869 7.00977Z"/>
</svg>
