<svg width="64" height="64" viewBox="0 0 64 64" fill="none" xmlns="http://www.w3.org/2000/svg">
<style>
  path { fill: #526D7A; }
  @media (prefers-color-scheme: dark) {
    path { fill: #D1DBE0; }
  }
</style>
<path d="M49.9913 49.4991C43.6392 55.978 34.7901 60 25 60H7.5C7.13241 60 6.77842 59.9419 6.44556 59.8368L16.7815 49.4991H49.9913Z"/>
<path d="M56.5 4C56.7582 4 57.0097 4.02813 57.252 4.08118L4.08118 57.252C4.02812 57.0097 4.00002 56.7581 4 56.5V39C4 19.67 19.67 4 39 4H56.5Z"/>
<path d="M58.397 35.4991C57.1957 39.3239 55.3556 42.8653 53.0017 45.9991H20.2806L30.7815 35.4991H58.397Z"/>
<path d="M60 25C60 27.3971 59.7575 29.7376 59.2985 31.9991H34.2815L44.7823 21.4991H60V25Z"/>
<path d="M59.8376 6.44556C59.9426 6.77829 60 7.13257 60 7.5V17.9991H48.2823L59.8376 6.44556Z"/>
</svg>
